<svg width="75" height="74" viewBox="0 0 75 74" fill="none" xmlns="http://www.w3.org/2000/svg">
<path d="M1.5 46.1838L7.80972 48.55" stroke="#00D1DE" stroke-width="2" stroke-miterlimit="10" stroke-linecap="round" stroke-linejoin="round"/>
<path d="M4.26123 65.9016L9.78224 61.958" stroke="#00D1DE" stroke-width="2" stroke-miterlimit="10" stroke-linecap="round" stroke-linejoin="round"/>
<path d="M2.02637 56.174L8.0732 55.3853" stroke="#00D1DE" stroke-width="2" stroke-miterlimit="10" stroke-linecap="round" stroke-linejoin="round"/>
<path d="M71.9593 73L67.3585 55.1224C66.3069 50.7845 67.0956 46.3151 69.4617 42.503C72.6166 37.6392 74.3255 31.7238 73.7997 25.4141C72.7481 13.3205 61.4431 2.01552 49.3495 1.09535C36.5986 0.0437327 25.5565 7.79944 21.7444 18.9729L13.8572 36.719C13.0685 38.4279 14.1201 40.5312 15.9605 40.9255L19.9041 41.7143L17.9323 46.3151C17.5379 47.2353 18.0637 48.1554 18.9839 48.4183L24.7678 50.1272C25.8194 50.3901 26.0823 51.7047 25.2936 52.4934L21.2186 56.437C20.6928 56.9628 20.5613 58.1458 21.2186 58.6716L22.1388 59.4604C22.5331 59.8547 22.796 60.2491 22.9275 60.7749L23.4533 63.6669C23.8476 65.7701 26.0823 66.9532 28.0541 66.2959L36.2042 63.6669C38.4389 62.8781 40.805 64.1927 41.3308 66.5588L42.9083 72.8685" stroke="#00D1DE" stroke-width="2" stroke-miterlimit="10" stroke-linecap="round" stroke-linejoin="round"/>
</svg>
