<svg width="64" height="74" viewBox="0 0 64 74" fill="none" xmlns="http://www.w3.org/2000/svg">
<path d="M60.5663 73L56.3529 56.8048C55.0362 51.8013 55.6946 46.4029 58.4596 41.9262C61.3563 37.1861 62.8047 31.5244 62.278 25.4676C61.2246 12.5641 50.6911 2.16226 37.7876 1.10891C30.5458 0.450568 23.6991 2.8206 18.564 7.034C14.7456 10.194 11.7172 14.2758 10.1372 19.1475L1.18375 41.3995C0.525406 43.1112 1.71041 44.9546 3.55377 44.9546H8.55716L9.47886 57.7264C9.7422 61.1498 12.7706 63.5199 16.0623 63.1249L23.9624 61.9398C27.2541 61.4132 30.2825 63.7832 30.5458 67.0749L31.2042 73" stroke="#00D1DE" stroke-width="2" stroke-miterlimit="10" stroke-linecap="round" stroke-linejoin="round"/>
<path d="M35.813 57.7262C37.7037 57.7262 39.2364 56.1935 39.2364 54.3028C39.2364 52.4121 37.7037 50.8794 35.813 50.8794C33.9224 50.8794 32.3896 52.4121 32.3896 54.3028C32.3896 56.1935 33.9224 57.7262 35.813 57.7262Z" stroke="#00D1DE" stroke-width="2" stroke-miterlimit="10" stroke-linecap="round" stroke-linejoin="round"/>
<path d="M27.5175 55.3564C26.8591 50.748 30.1509 46.5346 34.7593 45.8762" stroke="#00D1DE" stroke-width="2" stroke-miterlimit="10" stroke-linecap="round" stroke-linejoin="round"/>
<path d="M44.2398 53.1177C44.8982 57.7261 41.6064 61.9395 36.998 62.5978" stroke="#00D1DE" stroke-width="2" stroke-miterlimit="10" stroke-linecap="round" stroke-linejoin="round"/>
<path d="M48.8481 52.4592C49.9014 59.5693 44.898 66.1528 37.6562 67.2061" stroke="#00D1DE" stroke-width="2" stroke-miterlimit="10" stroke-linecap="round" stroke-linejoin="round"/>
<path d="M22.9091 56.0147C21.8557 48.9046 26.8591 42.3212 34.1009 41.2678" stroke="#00D1DE" stroke-width="2" stroke-miterlimit="10" stroke-linecap="round" stroke-linejoin="round"/>
</svg>
