<svg width="75" height="58" viewBox="0 0 75 58" fill="none" xmlns="http://www.w3.org/2000/svg">
<path d="M26.5738 9.28405L19.2897 2L12.0057 9.28405C7.94342 13.3463 7.94342 19.7899 12.0057 23.8521C16.0679 27.9144 22.5115 27.9144 26.5738 23.8521C30.636 19.7899 30.636 13.3463 26.5738 9.28405Z" stroke="#00D1DE" stroke-width="2" stroke-miterlimit="10"/>
<path d="M6.26264 29.035C4.44163 31.1362 2.90078 33.2373 1.5 35.6187C8.64397 48.0856 22.0914 56.4903 37.5 56.4903C52.9085 56.4903 66.356 48.0856 73.5 35.6187C66.356 23.1517 52.9085 14.7471 37.5 14.7471" stroke="#00D1DE" stroke-width="2" stroke-miterlimit="10" stroke-linecap="round" stroke-linejoin="round"/>
<path d="M37.6397 45.8442C43.2872 45.8442 47.8654 41.266 47.8654 35.6185C47.8654 29.971 43.2872 25.3928 37.6397 25.3928C31.9922 25.3928 27.4141 29.971 27.4141 35.6185C27.4141 41.266 31.9922 45.8442 37.6397 45.8442Z" stroke="#00D1DE" stroke-width="2" stroke-miterlimit="10" stroke-linecap="round" stroke-linejoin="round"/>
</svg>
