<svg width="73" height="72" viewBox="0 0 73 72" fill="none" xmlns="http://www.w3.org/2000/svg">
<path d="M68.296 34.864H29.5368C27.6912 34.864 26.1294 33.3023 26.1294 31.4566V31.0307C26.1294 29.185 27.6912 27.6233 29.5368 27.6233H68.296C70.1417 27.6233 71.7033 29.185 71.7033 31.0307V31.4566C71.7033 33.4443 70.1417 34.864 68.296 34.864Z" stroke="#00D1DE" stroke-width="2" stroke-miterlimit="10" stroke-linecap="round" stroke-linejoin="round"/>
<path d="M21.3024 8.74073H4.40744C2.56176 8.74073 1 7.179 1 5.33333V4.9074C1 3.06173 2.56176 1.5 4.40744 1.5H21.3024C23.1481 1.5 24.7098 3.06173 24.7098 4.9074V5.4753C24.7098 7.32098 23.1481 8.74073 21.3024 8.74073Z" stroke="#00D1DE" stroke-width="2" stroke-miterlimit="10" stroke-linecap="round" stroke-linejoin="round"/>
<path d="M42.8839 70.4999L44.1617 60.7036C44.3037 59.5678 45.0135 58.7159 46.1493 58.432C57.0814 55.3085 65.5999 46.2221 67.8715 35.0061H6.82227C8.10004 40.9691 11.0815 46.2221 15.0568 50.3394C16.3346 51.6172 16.0506 53.6048 14.6309 54.5987L9.51974 57.8641" stroke="#00D1DE" stroke-width="2" stroke-miterlimit="10" stroke-linecap="round" stroke-linejoin="round"/>
<path d="M14.4868 65.8143L19.598 62.5489C20.8757 61.6971 22.5794 62.6909 22.5794 64.2526V70.3575" stroke="#00D1DE" stroke-width="2" stroke-miterlimit="10" stroke-linecap="round" stroke-linejoin="round"/>
<path d="M17.4686 34.8641H8.38215C6.82042 34.8641 5.40071 33.5863 5.40071 32.0246L3.98096 8.74072H21.8698L20.45 32.0246C20.45 33.7283 19.0303 34.8641 17.4686 34.8641Z" stroke="#00D1DE" stroke-width="2" stroke-miterlimit="10" stroke-linecap="round" stroke-linejoin="round"/>
<path d="M18.6055 70.5H47.0005" stroke="#00D1DE" stroke-width="2" stroke-miterlimit="10" stroke-linecap="round" stroke-linejoin="round"/>
</svg>
