<svg width="81" height="65" viewBox="0 0 81 65" fill="none" xmlns="http://www.w3.org/2000/svg">
<path d="M65.8201 29.1221C64.1101 29.1221 62.5317 28.596 61.2164 27.6752C59.2434 26.3599 57.1388 26.3599 55.1658 27.6752C53.7189 28.596 52.1405 29.1221 50.5621 29.1221C48.8522 29.1221 47.2738 28.596 45.9584 27.6752C43.9854 26.3599 41.8808 26.3599 39.9078 27.6752C38.4609 28.596 36.8825 29.1221 35.3041 29.1221C33.5942 29.1221 32.0157 28.596 30.7004 27.6752C28.7274 26.3599 26.6228 26.3599 24.6498 27.6752C23.2029 28.596 21.6245 29.1221 20.0461 29.1221C18.3361 29.1221 16.7577 28.596 15.4424 27.6752" stroke="#00D1DE" stroke-width="2" stroke-miterlimit="10" stroke-linecap="round" stroke-linejoin="round"/>
<path d="M43.1965 63.4528C43.5911 58.3229 46.8794 53.9823 51.4831 51.7462C60.0329 47.6686 65.8204 38.9873 65.8204 28.8592C65.8204 28.8592 65.8204 23.7293 65.8204 20.704C65.8204 19.5202 66.6096 18.468 67.6619 18.0734C74.5017 15.7057 79.5 9.129 79.5 1.5M1.5 1.5C1.5 9.129 6.49831 15.7057 13.3381 18.0734C14.3904 18.468 15.1796 19.5202 15.1796 20.704C15.1796 23.7293 15.1796 28.8592 15.1796 28.8592C15.1796 38.9873 21.0987 47.6686 29.5169 51.7462C34.1206 53.9823 37.4089 58.3229 37.8035 63.4528M73.844 1.5C73.844 6.62985 70.5556 10.9705 66.0835 12.6804C65.0312 13.075 63.8474 12.812 63.0582 11.8912C61.0852 9.91821 58.4545 8.60286 55.4292 8.60286H25.7023C22.6771 8.60286 19.9148 9.91821 18.0734 11.8912C17.2842 12.6804 16.1004 13.075 15.0481 12.6804C10.4444 10.9705 7.28751 6.62985 7.28751 1.5" stroke="#00D1DE" stroke-width="2" stroke-miterlimit="10" stroke-linecap="round" stroke-linejoin="round"/>
</svg>
