<svg width="63" height="75" viewBox="0 0 63 75" fill="none" xmlns="http://www.w3.org/2000/svg">
<path d="M18.4627 8.28345C14.6663 11.4253 11.6554 15.4834 10.0845 20.3271L1.18269 42.4507C0.528142 44.1525 1.70633 45.9852 3.53905 45.9852H8.5136L9.42996 58.6834C9.69178 62.087 12.7027 64.4434 15.9754 64.0507L23.8299 62.8725C27.1027 62.3489 30.1136 64.7052 30.3754 67.9779L31.0299 73.8688" stroke="#00D1DE" stroke-width="2" stroke-miterlimit="10" stroke-linecap="round" stroke-linejoin="round"/>
<path d="M60.0915 74.0003L55.9024 57.8985C54.5933 52.9239 55.2478 47.5566 57.9969 43.1057C60.8769 38.393 62.3169 32.7639 61.7933 26.7421C61.0078 17.7094 55.6406 9.85486 48.0479 5.66577" stroke="#00D1DE" stroke-width="2" stroke-miterlimit="10" stroke-linecap="round" stroke-linejoin="round"/>
<path d="M36.1346 6.58181L31.5527 2L26.9709 6.58181C24.4837 9.06908 24.4837 13.2582 26.9709 15.7454C29.4582 18.2327 33.6473 18.2327 36.1346 15.7454C38.6218 13.2582 38.6218 9.19999 36.1346 6.58181Z" stroke="#00D1DE" stroke-width="2" stroke-miterlimit="10"/>
<path d="M24.7463 20.1963L22.2591 17.709L19.9027 20.1963C18.5936 21.5053 18.5936 23.7308 19.9027 25.1708C21.2118 26.4799 23.4373 26.4799 24.8773 25.1708C26.1864 23.8617 26.1863 21.6363 24.7463 20.1963Z" stroke="#00D1DE" stroke-width="2" stroke-miterlimit="10"/>
</svg>
