<svg width="65" height="81" viewBox="0 0 65 81" fill="none" xmlns="http://www.w3.org/2000/svg">
<path d="M18.8415 14.2405C15.0714 17.3605 12.0814 21.3905 10.5214 26.2005L1.68142 48.1706C1.03142 49.8606 2.20142 51.6806 4.02143 51.6806H8.96143L9.87144 64.2906C10.1314 67.6706 13.1215 70.0106 16.3715 69.6206L24.1715 68.4506C27.4215 67.9306 30.4115 70.2706 30.6715 73.5206L31.3215 79.3707" stroke="#00D1DE" stroke-width="2" stroke-miterlimit="10" stroke-linecap="round" stroke-linejoin="round"/>
<path d="M60.1812 79.5002L56.0212 63.5102C54.7212 58.5701 55.3712 53.2401 58.1013 48.8201C60.9613 44.1401 62.3913 38.5501 61.8713 32.5701" stroke="#00D1DE" stroke-width="2" stroke-miterlimit="10" stroke-linecap="round" stroke-linejoin="round"/>
<path d="M51.7295 4.49048L41.0695 13.8505L47.3095 16.3205L39.7695 22.8205" stroke="#00D1DE" stroke-width="2" stroke-miterlimit="10" stroke-linecap="round" stroke-linejoin="round"/>
<path d="M48.4834 30.8796L56.6734 28.7996L53.4234 23.9896L63.8235 20.0896" stroke="#00D1DE" stroke-width="2" stroke-miterlimit="10" stroke-linecap="round" stroke-linejoin="round"/>
<path d="M27.0317 1.5L25.4717 13.72H30.9317L29.2417 22.8201" stroke="#00D1DE" stroke-width="2" stroke-miterlimit="10" stroke-linecap="round" stroke-linejoin="round"/>
</svg>
