<svg width="75" height="74" viewBox="0 0 75 74" fill="none" xmlns="http://www.w3.org/2000/svg">
<path d="M32.8158 73L72.7375 33.3174C74.0523 32.0026 74.0523 29.8511 72.618 28.5363C71.3032 27.2215 69.2712 27.2215 67.8369 28.4168L55.7648 39.4132C55.1672 40.0108 54.211 39.0546 54.8086 38.457L71.4227 20.05C72.618 18.7352 72.618 16.5837 71.3032 15.2689C69.9884 13.9542 67.8369 13.9542 66.5221 15.1494L47.9956 32.2416C47.398 32.8393 46.4418 31.8831 47.0394 31.2854L66.5221 9.17312C67.7174 7.85834 67.7174 5.70687 66.4026 4.39208C65.0878 3.0773 62.9364 3.0773 61.6216 4.27256L41.4217 23.3967C40.8241 23.9943 39.8678 23.1577 40.4655 22.4405L54.0914 6.90213C55.2867 5.58734 55.2867 3.43588 53.9719 2.12109L53.8524 2.00156C52.5376 0.686778 50.3861 0.686778 49.0713 1.88204L16.2017 32.4807C15.2455 33.3174 13.8112 32.7197 13.8112 31.405V18.7352C13.8112 17.0618 12.4964 15.6275 10.823 15.6275C9.26919 15.508 7.9544 16.7033 7.59583 18.1376L1.5 42.1623" stroke="#00D1DE" stroke-width="2" stroke-miterlimit="10" stroke-linecap="round" stroke-linejoin="round"/>
<path d="M34.6093 64.0357C35.5995 64.0357 36.4022 63.233 36.4022 62.2428C36.4022 61.2527 35.5995 60.45 34.6093 60.45C33.6191 60.45 32.8164 61.2527 32.8164 62.2428C32.8164 63.233 33.6191 64.0357 34.6093 64.0357Z" fill="#00D1DE"/>
<path d="M23.7314 55.3104C24.7215 55.3104 25.5243 54.5077 25.5243 53.5175C25.5243 52.5273 24.7215 51.7246 23.7314 51.7246C22.7412 51.7246 21.9385 52.5273 21.9385 53.5175C21.9385 54.5077 22.7412 55.3104 23.7314 55.3104Z" fill="#00D1DE"/>
<path d="M28.872 45.6285C29.8622 45.6285 30.6649 44.8258 30.6649 43.8356C30.6649 42.8454 29.8622 42.0427 28.872 42.0427C27.8818 42.0427 27.0791 42.8454 27.0791 43.8356C27.0791 44.8258 27.8818 45.6285 28.872 45.6285Z" fill="#00D1DE"/>
<path d="M41.0624 42.8797C42.0526 42.8797 42.8553 42.077 42.8553 41.0868C42.8553 40.0967 42.0526 39.2939 41.0624 39.2939C40.0722 39.2939 39.2695 40.0967 39.2695 41.0868C39.2695 42.077 40.0722 42.8797 41.0624 42.8797Z" fill="#00D1DE"/>
<path d="M36.7602 52.4415C37.7504 52.4415 38.5531 51.6388 38.5531 50.6486C38.5531 49.6584 37.7504 48.8557 36.7602 48.8557C35.77 48.8557 34.9673 49.6584 34.9673 50.6486C34.9673 51.6388 35.77 52.4415 36.7602 52.4415Z" fill="#00D1DE"/>
<path d="M45.245 52.3221C46.2352 52.3221 47.0379 51.5194 47.0379 50.5292C47.0379 49.539 46.2352 48.7363 45.245 48.7363C44.2549 48.7363 43.4521 49.539 43.4521 50.5292C43.4521 51.5194 44.2549 52.3221 45.245 52.3221Z" fill="#00D1DE"/>
<path d="M33.892 33.0785C34.8822 33.0785 35.6849 32.2758 35.6849 31.2856C35.6849 30.2954 34.8822 29.4927 33.892 29.4927C32.9018 29.4927 32.0991 30.2954 32.0991 31.2856C32.0991 32.2758 32.9018 33.0785 33.892 33.0785Z" fill="#00D1DE"/>
<path d="M13.6918 46.4649C14.682 46.4649 15.4847 45.6622 15.4847 44.672C15.4847 43.6819 14.682 42.8792 13.6918 42.8792C12.7016 42.8792 11.8989 43.6819 11.8989 44.672C11.8989 45.6622 12.7016 46.4649 13.6918 46.4649Z" fill="#00D1DE"/>
</svg>
