<svg width="56" height="43" viewBox="0 0 56 43" fill="none" xmlns="http://www.w3.org/2000/svg">
<path fill-rule="evenodd" clip-rule="evenodd" d="M12.101 40.5096C12.101 39.7031 12.6293 39.0389 13.4936 39.0389C14.3099 39.0389 14.8861 39.6556 14.8861 40.5096C14.8861 41.3158 14.3099 41.98 13.4936 41.98C12.6293 41.9324 12.101 41.3158 12.101 40.5096ZM15.8467 40.5096V38.2325H14.8382V38.8019C14.502 38.3749 14.0219 38.1376 13.3975 38.1376C12.101 38.1376 11.0926 39.134 11.0926 40.5096C11.0926 41.8851 12.101 42.8813 13.3975 42.8813C14.0698 42.8813 14.5501 42.644 14.8382 42.2172V42.7864H15.8467V40.5096ZM49.5574 40.5096C49.5574 39.7031 50.0856 39.0389 50.9501 39.0389C51.7663 39.0389 52.3427 39.6556 52.3427 40.5096C52.3427 41.3158 51.7663 41.98 50.9501 41.98C50.0856 41.9324 49.5574 41.3158 49.5574 40.5096ZM53.2551 40.5096V36.4302H52.2464V38.8019C51.9104 38.3749 51.4303 38.1376 50.806 38.1376C49.5094 38.1376 48.501 39.134 48.501 40.5096C48.501 41.8851 49.5094 42.8813 50.806 42.8813C51.4782 42.8813 51.9586 42.644 52.2464 42.2172V42.7864H53.2551V40.5096ZM28.236 38.9916C28.8603 38.9916 29.2926 39.371 29.3886 40.0826H26.9876C27.0836 39.4659 27.5157 38.9916 28.236 38.9916ZM28.236 38.1376C26.8916 38.1376 25.931 39.0865 25.931 40.5096C25.931 41.9324 26.8916 42.8813 28.2841 42.8813C28.9564 42.8813 29.6286 42.6915 30.1569 42.2646L29.6767 41.553C29.2926 41.8376 28.8124 42.0273 28.332 42.0273C27.7079 42.0273 27.0836 41.7429 26.9395 40.9365H30.3489V40.5569C30.397 39.0865 29.5328 38.1376 28.236 38.1376ZM40.2893 40.5096C40.2893 39.7031 40.8176 39.0389 41.6819 39.0389C42.4983 39.0389 43.0745 39.6556 43.0745 40.5096C43.0745 41.3158 42.4983 41.98 41.6819 41.98C40.8176 41.9324 40.2893 41.3158 40.2893 40.5096ZM43.9869 40.5096V38.2325H42.9784V38.8019C42.6424 38.3749 42.1621 38.1376 41.5378 38.1376C40.2414 38.1376 39.2328 39.134 39.2328 40.5096C39.2328 41.8851 40.2414 42.8813 41.5378 42.8813C42.2102 42.8813 42.6903 42.644 42.9784 42.2172V42.7864H43.9869V40.5096ZM34.671 40.5096C34.671 41.8851 35.6313 42.8813 37.1201 42.8813C37.7923 42.8813 38.2725 42.7389 38.7526 42.3594L38.2725 41.553C37.8884 41.8376 37.504 41.98 37.072 41.98C36.2556 41.98 35.6794 41.4108 35.6794 40.5096C35.6794 39.6556 36.2556 39.0865 37.072 39.0389C37.504 39.0389 37.8884 39.1813 38.2725 39.4659L38.7526 38.6595C38.2725 38.28 37.7923 38.1376 37.1201 38.1376C35.6313 38.1376 34.671 39.134 34.671 40.5096ZM47.5405 38.1376C46.9643 38.1376 46.5802 38.4224 46.34 38.8019V38.2325H45.3315V42.7864H46.34V40.225C46.34 39.4659 46.6762 39.0389 47.3005 39.0389C47.4926 39.0389 47.7325 39.0864 47.9248 39.134L48.2129 38.1852C48.0209 38.1376 47.7325 38.1376 47.5405 38.1376ZM20.7447 38.6122C20.2645 38.28 19.5923 38.1376 18.872 38.1376C17.7196 38.1376 16.9511 38.707 16.9511 39.6083C16.9511 40.3672 17.5273 40.7941 18.5358 40.9365L19.0159 40.9839C19.5442 41.0787 19.8323 41.2209 19.8323 41.4581C19.8323 41.7903 19.4482 42.0273 18.7759 42.0273C18.1035 42.0273 17.5754 41.7903 17.2392 41.553L16.7591 42.3121C17.2871 42.6915 18.0075 42.8813 18.7278 42.8813C20.0725 42.8813 20.8409 42.2646 20.8409 41.4108C20.8409 40.6044 20.2166 40.1774 19.2561 40.0353L18.7759 39.9877C18.3437 39.9402 18.0075 39.8453 18.0075 39.5607C18.0075 39.2288 18.3437 39.0389 18.872 39.0389C19.4482 39.0389 20.0246 39.2762 20.3127 39.4186L20.7447 38.6122ZM33.6623 38.1376C33.0861 38.1376 32.702 38.4224 32.462 38.8019V38.2325H31.4534V42.7864H32.462V40.225C32.462 39.4659 32.798 39.0389 33.4224 39.0389C33.6144 39.0389 33.8546 39.0864 34.0467 39.134L34.3348 38.1852C34.1427 38.1376 33.8546 38.1376 33.6623 38.1376ZM25.1147 38.2325H23.4819V36.8569H22.4735V38.2325H21.5611V39.134H22.4735V41.2209C22.4735 42.2646 22.9057 42.8813 24.0583 42.8813C24.4904 42.8813 24.9707 42.7389 25.3067 42.5491L25.0186 41.6954C24.7305 41.8851 24.3943 41.9324 24.1544 41.9324C23.674 41.9324 23.4819 41.6481 23.4819 41.1736V39.134H25.1147V38.2325ZM10.1802 42.7864V39.9402C10.1802 38.8492 9.50795 38.1376 8.35535 38.1376C7.77916 38.1376 7.15485 38.3274 6.7226 38.9441C6.38638 38.4224 5.90623 38.1376 5.18588 38.1376C4.70573 38.1376 4.22557 38.28 3.84145 38.8019V38.2325H2.83301V42.7864H3.84145V40.2723C3.84145 39.4659 4.27348 39.0865 4.94591 39.0865C5.61813 39.0865 5.95435 39.5134 5.95435 40.2723V42.7864H6.96279V40.2723C6.96279 39.4659 7.44295 39.0865 8.06726 39.0865C8.73948 39.0865 9.0757 39.5134 9.0757 40.2723V42.7864H10.1802Z" fill="#576473"/>
<path opacity="0.8" fill-rule="evenodd" clip-rule="evenodd" d="M27.9961 3.65283C31.9819 6.7834 34.575 11.6217 34.575 17.0768C34.575 22.5318 32.0298 27.3702 27.9961 30.5008C27.9964 30.5011 27.9967 30.5013 27.9971 30.5016L27.9471 30.5016C27.9474 30.5013 27.9477 30.5011 27.948 30.5008C23.9622 27.4176 21.3691 22.5318 21.3691 17.0768C21.3691 11.6217 23.9622 6.7834 27.948 3.65283H27.9961Z" fill="#576473"/>
<path fill-rule="evenodd" clip-rule="evenodd" d="M21.3692 17.0766C21.3692 11.6215 23.9623 6.7832 27.9482 3.65262C25.0189 1.37557 21.3211 0 17.2874 0C7.73128 0 0 7.63693 0 17.0766C0 26.5161 7.73128 34.1532 17.2874 34.1532C21.3211 34.1532 25.0189 32.7777 27.9482 30.5006C23.9623 27.4174 21.3692 22.5316 21.3692 17.0766Z" fill="#576473"/>
<path opacity="0.6" fill-rule="evenodd" clip-rule="evenodd" d="M55.9443 17.0766C55.9443 26.5161 48.213 34.1532 38.6567 34.1532C34.6229 34.1532 30.9254 32.7777 27.9961 30.5006C32.0298 27.37 34.575 22.5316 34.575 17.0766C34.575 11.6215 31.9819 6.7832 27.9961 3.65262C30.9254 1.37557 34.6229 0 38.6567 0C48.213 0 55.9443 7.68447 55.9443 17.0766Z" fill="#576473"/>
</svg>
