<svg width="103" height="26" viewBox="0 0 103 26" fill="none" xmlns="http://www.w3.org/2000/svg">
<path fill-rule="evenodd" clip-rule="evenodd" d="M55.8486 25.7L84.6821 25.7601L89.2105 20.7912L93.7713 25.7414H102.354V18.4913L96.9781 12.79L102.354 7.14014V0.0410421L55.8486 0V25.7Z" fill="white"/>
<path fill-rule="evenodd" clip-rule="evenodd" d="M58.9551 22.8822V2.82812H76.2425V7.44796H64.5521V10.5839H75.9642V15.1268H64.5521V18.2074H76.2425V22.8822H58.9551Z" fill="#576473"/>
<path fill-rule="evenodd" clip-rule="evenodd" d="M95.2679 2.82861L89.406 9.18457L83.5606 2.82861H76.1567L85.7227 12.8437L76.1567 22.8823H83.3596L89.2476 16.4626L95.1966 22.8823H102.354V22.5978L92.9916 12.8437L102.354 2.98641V2.82861H95.2679Z" fill="#576473"/>
<path fill-rule="evenodd" clip-rule="evenodd" d="M11.5133 0.208984H22.7232L26.6605 9.00276V0.208984H40.5L42.8865 6.79725L45.2811 0.208984H55.8489V25.9089H0L11.5133 0.208984Z" fill="white"/>
<path fill-rule="evenodd" clip-rule="evenodd" d="M14.4133 14.529L17.1264 8.15037L19.8374 14.529H14.4133ZM13.6359 3.00098L4.58936 23.0379H10.7941L12.5008 19.0257H21.7487L23.4543 23.0379H29.8133L20.8044 3.00098H13.6359Z" fill="#576473"/>
<path fill-rule="evenodd" clip-rule="evenodd" d="M29.728 23.0349V2.99756L38.4501 3.02744L42.9375 15.3457L47.455 2.99796H55.8489V23.0349L50.4475 23.0819V9.31805L45.3488 23.0349H40.4186L35.2141 9.27143V23.0349H29.728Z" fill="#576473"/>
</svg>
