<svg width="168" height="56" viewBox="0 0 168 56" fill="none" xmlns="http://www.w3.org/2000/svg">
<g clip-path="url(#clip0)">
<g clip-path="url(#clip1)">
<rect width="56" height="56" fill="white" fill-opacity="0.01"/>
<path d="M49.0005 7.22963H41.7196V0H35.7516V7.22963H28.4707V13.1556H35.7516V20.3852H41.7196V13.1556H49.0005V7.22963Z" fill="#00D1DE"/>
<path d="M35.7511 24C35.7511 29.9852 30.8573 34.7852 24.8894 34.7852C18.9214 34.7852 13.968 29.9259 13.968 24C13.968 18.0741 18.8617 13.2148 24.8297 13.2148V7.28889C15.5793 7.22963 8 14.7556 8 24V48H13.968V36.7407C16.8923 39.2296 20.7118 40.7111 24.8297 40.7111C34.1397 40.7111 41.6594 33.1852 41.6594 24H35.7511Z" fill="#00839F"/>
<path fill-rule="evenodd" clip-rule="evenodd" d="M162.539 19.8526V22.9474H158.066V27.3684C158.066 29.8947 159.893 31.7263 162.539 31.7263V34.8842C158.129 34.8842 154.916 31.7263 154.916 27.3684V16H158.066V19.8526H162.539ZM151.45 34.6316H148.3V26.9895C148.3 24.6526 146.41 22.6947 144.016 22.6947C141.685 22.6947 139.732 24.5895 139.732 26.9895V34.6316H136.582V26.9895C136.582 22.8842 139.921 19.5368 144.016 19.5368C148.111 19.5368 151.45 22.8842 151.45 26.9895V34.6316ZM56 27.2421C56 23.0105 59.4022 19.6 63.6234 19.6C67.7817 19.6 71.2469 23.0105 71.2469 27.2421C71.2469 31.4737 67.8447 34.8842 63.6234 34.8842C61.6703 34.8842 60.3473 34.3789 59.1502 33.2421V40H56V27.4947V27.2421ZM59.0242 27.2421C59.0242 29.7684 61.0403 31.7895 63.5604 31.7895C66.0176 31.7895 68.0967 29.8316 68.0967 27.3053C68.0967 24.7789 66.0806 22.7579 63.5604 22.7579C61.0403 22.7579 59.0242 24.7158 59.0242 27.2421ZM74.2079 34.6316H77.3581V27.1158C77.3581 24.5263 79.1852 22.4421 81.8313 22.4421V19.6C77.4211 19.6 74.2079 22.7579 74.2079 27.1158V34.6316ZM99.4099 27.2421C99.4099 23.0105 96.0077 19.6 91.7865 19.6C87.5652 19.6 84.163 23.0105 84.163 27.2421C84.163 31.8526 87.6282 34.8842 92.1645 34.8842C94.3696 34.8842 96.4487 34.0632 97.9608 32.5474L95.9447 30.5263C94.9996 31.4737 93.6136 31.979 92.2275 31.979C90.2744 31.979 87.7542 30.9053 87.4392 28.6947H99.3469V27.2421H99.4099ZM87.6912 25.979C88.0692 23.8947 89.7073 22.4421 91.9125 22.4421C94.0546 22.4421 95.8187 24.0211 96.1337 25.979H87.6912ZM125.682 19.6C129.903 19.6 133.305 23.0105 133.305 27.2421H133.242V28.6947H121.335C121.65 30.9053 124.17 31.979 126.123 31.979C127.509 31.979 128.895 31.4737 129.84 30.5263L131.856 32.5474C130.344 34.0632 128.265 34.8842 126.06 34.8842C121.524 34.8842 118.059 31.8526 118.059 27.2421C118.059 23.0105 121.461 19.6 125.682 19.6ZM125.808 22.4421C123.603 22.4421 121.965 23.8947 121.587 25.979H130.029C129.714 24.0211 127.95 22.4421 125.808 22.4421ZM107.096 34.6316H111.003L117.177 19.8526H113.712L109.049 31.3474L104.387 19.8526H100.859L107.096 34.6316ZM164.745 16H162.603V16.4421H163.422V18.4H163.926V16.4421H164.745V16ZM167.454 16.8842V18.4H167.958V16H167.517L166.572 17.5158L165.564 16H165.123V18.4632H165.627V16.9474L166.383 18.1474H166.635L167.454 16.8842Z" fill="#00839F"/>
</g>
</g>
<defs>
<clipPath id="clip0">
<rect width="167.958" height="56" fill="white"/>
</clipPath>
<clipPath id="clip1">
<rect width="167.958" height="56" fill="white"/>
</clipPath>
</defs>
</svg>
