<svg width="228" height="56" viewBox="0 0 228 56" fill="none" xmlns="http://www.w3.org/2000/svg">
<g clip-path="url(#clip0)">
<rect width="56" height="56" fill="white" fill-opacity="0.01"/>
<path opacity="0.5" d="M49 7.22963H41.7191V0H35.7511V7.22963H28.4702V13.1556H35.7511V20.3852H41.7191V13.1556H49V7.22963Z" fill="white"/>
<path d="M35.7511 24C35.7511 29.9852 30.8573 34.7852 24.8894 34.7852C18.9214 34.7852 13.968 29.9259 13.968 24C13.968 18.0741 18.8617 13.2148 24.8297 13.2148V7.28889C15.5793 7.22963 8 14.7556 8 24V48H13.968V36.7407C16.8923 39.2296 20.7118 40.7111 24.8297 40.7111C34.1397 40.7111 41.6594 33.1852 41.6594 24H35.7511Z" fill="white"/>
<path opacity="0.5" fill-rule="evenodd" clip-rule="evenodd" d="M200.783 25.979C200.783 23.8316 200.216 22.3158 199.081 21.2421C197.884 20.1684 196.246 19.6632 193.915 19.5368C192.718 19.5368 191.521 19.6632 190.45 19.979C189.379 20.2947 188.434 20.8 187.678 21.3684L189.064 23.8947C189.631 23.4526 190.261 23.0737 191.08 22.8211C191.899 22.5684 192.718 22.4421 193.537 22.4421C194.797 22.4421 195.679 22.6947 196.309 23.2632C196.939 23.8316 197.254 24.6526 197.254 25.6632V25.9158H193.411C191.269 25.9158 189.757 26.2947 188.749 27.1158C187.804 27.9369 187.3 29.0105 187.3 30.3369C187.3 31.1579 187.552 31.9158 187.993 32.6105C188.497 33.3053 189.127 33.8105 189.946 34.1895C190.765 34.5684 191.71 34.7579 192.844 34.7579C193.978 34.7579 194.86 34.5684 195.679 34.2526C196.498 33.9369 197.065 33.4316 197.506 32.8V34.6316H200.783V25.979ZM197.38 30.0211C197.065 30.779 196.624 31.3474 195.931 31.7263C195.238 32.1053 194.482 32.2947 193.663 32.3579C192.781 32.3579 192.088 32.1684 191.584 31.7895C191.08 31.4105 190.828 30.9053 190.828 30.2737C190.828 28.9474 191.773 28.3158 193.789 28.3158H197.38V30.0211ZM203.996 34.6316H207.146V27.1158C207.146 24.5263 208.973 22.4421 211.619 22.4421V19.6C207.209 19.6 203.996 22.7579 203.996 27.1158V34.6316ZM220.377 19.6C224.598 19.6 228 23.0105 228 27.2421V28.6947H216.029C216.344 30.9053 218.864 31.979 220.818 31.979C222.204 31.979 223.59 31.4737 224.535 30.5263L226.551 32.5474C225.039 34.0632 222.96 34.8842 220.755 34.8842C216.218 34.8842 212.753 31.8526 212.753 27.2421C212.753 23.0105 216.155 19.6 220.377 19.6ZM220.44 22.4421C218.234 22.4421 216.596 23.8947 216.218 25.979H224.661C224.346 24.0211 222.582 22.4421 220.44 22.4421ZM175.644 33.8737C174.447 33.2421 173.502 32.2947 172.809 31.1579C172.116 30.0211 171.801 28.6947 171.801 27.2421C171.801 25.7895 172.116 24.4632 172.809 23.3263C173.502 22.1895 174.447 21.3053 175.644 20.6105C176.841 19.979 178.227 19.6632 179.802 19.6632C181.251 19.6632 182.511 19.979 183.645 20.5474C184.717 21.1158 185.599 22 186.103 23.0737L183.456 24.6526C183.015 23.9579 182.511 23.4526 181.881 23.1368C181.251 22.8211 180.558 22.6316 179.802 22.6316C178.542 22.6316 177.471 23.0737 176.589 23.8947C175.77 24.7158 175.329 25.8526 175.329 27.2421C175.329 28.6316 175.77 29.7684 176.589 30.5895C177.408 31.4105 178.479 31.8526 179.802 31.8526C180.558 31.8526 181.251 31.6632 181.881 31.3474C182.511 31.0316 183.015 30.4632 183.456 29.8316L186.103 31.4105C185.536 32.5474 184.717 33.3684 183.582 34C182.511 34.6316 181.188 34.8842 179.802 34.8842C178.227 34.8211 176.841 34.5053 175.644 33.8737Z" fill="white"/>
<path fill-rule="evenodd" clip-rule="evenodd" d="M162.539 19.8526V22.9474H158.066V27.3684C158.066 29.8947 159.893 31.7263 162.539 31.7263V34.8842C158.129 34.8842 154.916 31.7263 154.916 27.3684V16H158.066V19.8526H162.539ZM151.45 34.6316H148.3V26.9895C148.3 24.6526 146.41 22.6947 144.016 22.6947C141.685 22.6947 139.732 24.5895 139.732 26.9895V34.6316H136.582V26.9895C136.582 22.8842 139.921 19.5368 144.016 19.5368C148.111 19.5368 151.45 22.8842 151.45 26.9895V34.6316ZM56 27.2421C56 23.0105 59.4022 19.6 63.6234 19.6C67.7817 19.6 71.2469 23.0105 71.2469 27.2421C71.2469 31.4737 67.8447 34.8842 63.6234 34.8842C61.6703 34.8842 60.3473 34.3789 59.1502 33.2421V40H56V27.4947V27.2421ZM59.0242 27.2421C59.0242 29.7684 61.0403 31.7895 63.5604 31.7895C66.0176 31.7895 68.0967 29.8316 68.0967 27.3053C68.0967 24.7789 66.0806 22.7579 63.5604 22.7579C61.0403 22.7579 59.0242 24.7158 59.0242 27.2421ZM74.2079 34.6316H77.3581V27.1158C77.3581 24.5263 79.1852 22.4421 81.8313 22.4421V19.6C77.4211 19.6 74.2079 22.7579 74.2079 27.1158V34.6316ZM99.4099 27.2421C99.4099 23.0105 96.0077 19.6 91.7865 19.6C87.5652 19.6 84.163 23.0105 84.163 27.2421C84.163 31.8526 87.6282 34.8842 92.1645 34.8842C94.3696 34.8842 96.4487 34.0632 97.9608 32.5474L95.9447 30.5263C94.9996 31.4737 93.6136 31.979 92.2275 31.979C90.2744 31.979 87.7542 30.9053 87.4392 28.6947H99.3469V27.2421H99.4099ZM87.6912 25.979C88.0692 23.8947 89.7073 22.4421 91.9125 22.4421C94.0546 22.4421 95.8187 24.0211 96.1337 25.979H87.6912ZM125.682 19.6C129.903 19.6 133.305 23.0105 133.305 27.2421H133.242V28.6947H121.335C121.65 30.9053 124.17 31.979 126.123 31.979C127.509 31.979 128.895 31.4737 129.84 30.5263L131.856 32.5474C130.344 34.0632 128.265 34.8842 126.06 34.8842C121.524 34.8842 118.059 31.8526 118.059 27.2421C118.059 23.0105 121.461 19.6 125.682 19.6ZM125.808 22.4421C123.603 22.4421 121.965 23.8947 121.587 25.979H130.029C129.714 24.0211 127.95 22.4421 125.808 22.4421ZM107.096 34.6316H111.003L117.177 19.8526H113.712L109.049 31.3474L104.387 19.8526H100.859L107.096 34.6316ZM164.745 16H162.603V16.4421H163.422V18.4H163.926V16.4421H164.745V16ZM167.454 16.8842V18.4H167.958V16H167.517L166.572 17.5158L165.564 16H165.123V18.4632H165.627V16.9474L166.383 18.1474H166.635L167.454 16.8842Z" fill="white"/>
</g>
<defs>
<clipPath id="clip0">
<rect width="228" height="56" fill="white"/>
</clipPath>
</defs>
</svg>
