<svg aria-hidden="true" style="position: absolute; width: 0; height: 0; overflow: hidden;" version="1.1" xmlns="http://www.w3.org/2000/svg" xmlns:xlink="http://www.w3.org/1999/xlink">
<defs>
<symbol id="icon-Vector" viewBox="0 0 39 32">
<path fill="#98a5b3" style="fill: var(--color1, #98a5b3)" d="M8.952 12.145c-0.438 0-0.858 0.069-1.276 0.132 0.135-0.472 0.275-0.952 0.499-1.383 0.224-0.627 0.573-1.17 0.921-1.717 0.291-0.592 0.803-0.993 1.18-1.499 0.395-0.492 0.933-0.82 1.359-1.229 0.418-0.427 0.966-0.641 1.402-0.942 0.456-0.271 0.852-0.57 1.276-0.712 0.408-0.175 0.766-0.325 1.058-0.452 0.593-0.254 0.931-0.401 0.931-0.401l-0.952-3.942c0 0-0.428 0.106-1.172 0.293-0.375 0.098-0.832 0.212-1.353 0.348-0.532 0.102-1.1 0.38-1.732 0.635-0.624 0.289-1.347 0.484-2.018 0.948-0.675 0.443-1.455 0.814-2.142 1.408-0.666 0.612-1.469 1.143-2.062 1.922-0.648 0.728-1.288 1.493-1.785 2.364-0.575 0.83-0.966 1.741-1.378 2.642-0.373 0.901-0.673 1.823-0.919 2.718-0.465 1.794-0.673 3.499-0.754 4.957-0.067 1.461-0.028 2.675 0.055 3.554 0.029 0.415 0.084 0.818 0.124 1.096 0.033 0.222 0.049 0.342 0.049 0.342l0.051-0.012c0.854 4.134 4.394 7.238 8.639 7.238 4.879 0 8.835-4.099 8.835-9.154s-3.956-9.154-8.835-9.154zM30.549 12.145c-0.438 0-0.858 0.069-1.276 0.132 0.135-0.472 0.275-0.952 0.499-1.383 0.224-0.627 0.573-1.17 0.921-1.717 0.29-0.592 0.803-0.993 1.18-1.499 0.395-0.492 0.933-0.82 1.359-1.229 0.418-0.427 0.966-0.641 1.402-0.942 0.456-0.271 0.852-0.57 1.276-0.712 0.408-0.175 0.766-0.325 1.058-0.452 0.593-0.254 0.931-0.401 0.931-0.401l-0.952-3.942c0 0-0.428 0.106-1.172 0.293-0.375 0.098-0.833 0.212-1.353 0.348-0.532 0.102-1.1 0.38-1.732 0.635-0.623 0.291-1.347 0.484-2.018 0.95-0.675 0.443-1.455 0.814-2.142 1.408-0.666 0.612-1.469 1.143-2.062 1.92-0.648 0.728-1.288 1.493-1.785 2.364-0.575 0.83-0.966 1.741-1.378 2.642-0.373 0.901-0.673 1.823-0.919 2.718-0.465 1.794-0.673 3.499-0.754 4.957-0.067 1.461-0.027 2.675 0.055 3.554 0.029 0.415 0.084 0.818 0.124 1.096 0.033 0.222 0.049 0.342 0.049 0.342l0.051-0.012c0.854 4.134 4.394 7.238 8.639 7.238 4.879 0 8.835-4.099 8.835-9.154s-3.956-9.154-8.835-9.154z"></path>
</symbol>
<symbol id="icon-Arrow" viewBox="0 0 32 32">
<path fill="#fff" style="fill: var(--color1, #fff)" opacity="0.01" d="M0 0h32v32h-32v-32z"></path>
<path fill="none" stroke-linejoin="round" stroke-linecap="round" stroke-miterlimit="4" stroke-width="2.6667" d="M6.667 16h18.667"></path>
<path fill="none" stroke-linejoin="round" stroke-linecap="round" stroke-miterlimit="4" stroke-width="2.6667" d="M16 6.667l9.333 9.333-9.333 9.333"></path>
</symbol>
<symbol id="icon-Book-open" viewBox="0 0 32 32">
<path fill="#fff" style="fill: var(--color1, #fff)" opacity="0.01" d="M0 0h32v32h-32v-32z"></path>
<path fill="none" stroke-linejoin="round" stroke-linecap="round" stroke-miterlimit="4" stroke-width="2.6667" d="M2.667 4h8c1.415 0 2.771 0.562 3.771 1.562s1.562 2.357 1.562 3.771v18.667c0-1.061-0.421-2.078-1.172-2.828s-1.768-1.172-2.828-1.172h-9.333v-20z"></path>
<path fill="none" stroke-linejoin="round" stroke-linecap="round" stroke-miterlimit="4" stroke-width="2.6667" d="M29.333 4h-8c-1.415 0-2.771 0.562-3.771 1.562s-1.562 2.357-1.562 3.771v18.667c0-1.061 0.421-2.078 1.172-2.828s1.768-1.172 2.828-1.172h9.333v-20z"></path>
</symbol>
<symbol id="icon-Briefcase" viewBox="0 0 32 32">
<path fill="#fff" style="fill: var(--color1, #fff)" opacity="0.01" d="M0 0h32v32h-32v-32z"></path>
<path fill="none" stroke-linejoin="round" stroke-linecap="round" stroke-miterlimit="4" stroke-width="2.6667" d="M26.667 9.333h-21.333c-1.473 0-2.667 1.194-2.667 2.667v13.333c0 1.473 1.194 2.667 2.667 2.667h21.333c1.473 0 2.667-1.194 2.667-2.667v-13.333c0-1.473-1.194-2.667-2.667-2.667z"></path>
<path fill="none" stroke-linejoin="round" stroke-linecap="round" stroke-miterlimit="4" stroke-width="2.6667" d="M21.333 28v-21.333c0-0.707-0.281-1.386-0.781-1.886s-1.178-0.781-1.886-0.781h-5.333c-0.707 0-1.386 0.281-1.886 0.781s-0.781 1.178-0.781 1.886v21.333"></path>
</symbol>
<symbol id="icon-Calendar" viewBox="0 0 32 32">
<path fill="#fff" style="fill: var(--color1, #fff)" opacity="0.01" d="M0 0h32v32h-32v-32z"></path>
<path fill="none" stroke-linejoin="round" stroke-linecap="round" stroke-miterlimit="4" stroke-width="2.6667" d="M25.333 5.333h-18.667c-1.473 0-2.667 1.194-2.667 2.667v18.667c0 1.473 1.194 2.667 2.667 2.667h18.667c1.473 0 2.667-1.194 2.667-2.667v-18.667c0-1.473-1.194-2.667-2.667-2.667z"></path>
<path fill="none" stroke-linejoin="round" stroke-linecap="round" stroke-miterlimit="4" stroke-width="2.6667" d="M21.333 2.667v5.333"></path>
<path fill="none" stroke-linejoin="round" stroke-linecap="round" stroke-miterlimit="4" stroke-width="2.6667" d="M10.667 2.667v5.333"></path>
<path fill="none" stroke-linejoin="round" stroke-linecap="round" stroke-miterlimit="4" stroke-width="2.6667" d="M4 13.333h24"></path>
</symbol>
<symbol id="icon-Cart" viewBox="0 0 32 32">
<path fill="#fff" style="fill: var(--color1, #fff)" opacity="0.01" d="M0 0h32v32h-32v-32z"></path>
<path fill="none" stroke-linejoin="round" stroke-linecap="round" stroke-miterlimit="4" stroke-width="2.6667" d="M12 29.333c0.736 0 1.333-0.597 1.333-1.333s-0.597-1.333-1.333-1.333c-0.736 0-1.333 0.597-1.333 1.333s0.597 1.333 1.333 1.333z"></path>
<path fill="none" stroke-linejoin="round" stroke-linecap="round" stroke-miterlimit="4" stroke-width="2.6667" d="M26.667 29.333c0.736 0 1.333-0.597 1.333-1.333s-0.597-1.333-1.333-1.333c-0.736 0-1.333 0.597-1.333 1.333s0.597 1.333 1.333 1.333z"></path>
<path fill="none" stroke-linejoin="round" stroke-linecap="round" stroke-miterlimit="4" stroke-width="2.6667" d="M1.333 1.333h5.333l3.573 17.853c0.122 0.614 0.456 1.165 0.943 1.558s1.098 0.601 1.723 0.589h12.96c0.626 0.012 1.236-0.197 1.723-0.589s0.821-0.944 0.943-1.558l2.133-11.187h-22.667"></path>
</symbol>
<symbol id="icon-Check" viewBox="0 0 32 32">
<path fill="none" stroke-linejoin="round" stroke-linecap="round" stroke-miterlimit="4" stroke-width="2.6667" d="M26.667 8l-14.667 14.667-6.667-6.667"></path>
</symbol>
<symbol id="icon-Check-circle" viewBox="0 0 32 32">
<path fill="#fff" style="fill: var(--color1, #fff)" opacity="0.01" d="M0 0h32v32h-32v-32z"></path>
<path fill="none" stroke-linejoin="round" stroke-linecap="round" stroke-miterlimit="4" stroke-width="2.6667" d="M29.333 14.773v1.227c-0.002 2.875-0.933 5.673-2.654 7.976s-4.141 3.988-6.899 4.803c-2.757 0.815-5.704 0.717-8.401-0.279s-5-2.838-6.565-5.25c-1.565-2.412-2.308-5.265-2.119-8.134s1.301-5.6 3.169-7.786 4.393-3.709 7.197-4.343c2.805-0.634 5.739-0.344 8.365 0.826"></path>
<path fill="none" stroke-linejoin="round" stroke-linecap="round" stroke-miterlimit="4" stroke-width="2.6667" d="M29.333 5.333l-13.333 13.347-4-4"></path>
</symbol>
<symbol id="icon-Chevron-down" viewBox="0 0 32 32">
<path fill="#fff" style="fill: var(--color1, #fff)" opacity="0.01" d="M0 0h32v32h-32v-32z"></path>
<path fill="none" stroke-linejoin="round" stroke-linecap="round" stroke-miterlimit="4" stroke-width="2.6667" d="M9.333 13.333l6.667 6.667 6.667-6.667"></path>
</symbol>
<symbol id="icon-Clock" viewBox="0 0 32 32">
<path fill="none" stroke-linejoin="round" stroke-linecap="round" stroke-miterlimit="4" stroke-width="2.6667" d="M16 29.333c7.364 0 13.333-5.97 13.333-13.333s-5.97-13.333-13.333-13.333c-7.364 0-13.333 5.97-13.333 13.333s5.97 13.333 13.333 13.333z"></path>
<path fill="none" stroke-linejoin="round" stroke-linecap="round" stroke-miterlimit="4" stroke-width="2.6667" d="M16 8v8l5.333 2.667"></path>
</symbol>
<symbol id="icon-Credit-card" viewBox="0 0 32 32">
<path fill="#fff" style="fill: var(--color1, #fff)" opacity="0.01" d="M0 0h32v32h-32v-32z"></path>
<path fill="none" stroke-linejoin="round" stroke-linecap="round" stroke-miterlimit="4" stroke-width="2.6667" d="M28 5.333h-24c-1.473 0-2.667 1.194-2.667 2.667v16c0 1.473 1.194 2.667 2.667 2.667h24c1.473 0 2.667-1.194 2.667-2.667v-16c0-1.473-1.194-2.667-2.667-2.667z"></path>
<path fill="none" stroke-linejoin="round" stroke-linecap="round" stroke-miterlimit="4" stroke-width="2.6667" d="M1.333 13.333h29.333"></path>
</symbol>
<symbol id="icon-File-text" viewBox="0 0 32 32">
<path fill="#fff" style="fill: var(--color1, #fff)" opacity="0.01" d="M0 0h32v32h-32v-32z"></path>
<path fill="none" stroke-linejoin="round" stroke-linecap="round" stroke-miterlimit="4" stroke-width="2.6667" d="M18.667 2.667h-10.667c-0.707 0-1.386 0.281-1.886 0.781s-0.781 1.178-0.781 1.886v21.333c0 0.707 0.281 1.385 0.781 1.886s1.178 0.781 1.886 0.781h16c0.707 0 1.385-0.281 1.886-0.781s0.781-1.178 0.781-1.886v-16l-8-8z"></path>
<path fill="none" stroke-linejoin="round" stroke-linecap="round" stroke-miterlimit="4" stroke-width="2.6667" d="M18.667 2.667v8h8"></path>
<path fill="none" stroke-linejoin="round" stroke-linecap="round" stroke-miterlimit="4" stroke-width="2.6667" d="M21.333 17.333h-10.667"></path>
<path fill="none" stroke-linejoin="round" stroke-linecap="round" stroke-miterlimit="4" stroke-width="2.6667" d="M21.333 22.667h-10.667"></path>
<path fill="none" stroke-linejoin="round" stroke-linecap="round" stroke-miterlimit="4" stroke-width="2.6667" d="M13.333 12h-2.667"></path>
</symbol>
<symbol id="icon-Home" viewBox="0 0 32 32">
<path fill="#fff" style="fill: var(--color1, #fff)" opacity="0.01" d="M0 0h32v32h-32v-32z"></path>
<path fill="none" stroke-linejoin="round" stroke-linecap="round" stroke-miterlimit="4" stroke-width="2.6667" d="M4 12l12-9.333 12 9.333v14.667c0 0.707-0.281 1.385-0.781 1.886s-1.178 0.781-1.886 0.781h-18.667c-0.707 0-1.386-0.281-1.886-0.781s-0.781-1.178-0.781-1.886v-14.667z"></path>
<path fill="none" stroke-linejoin="miter" stroke-linecap="butt" stroke-miterlimit="4" stroke-width="2.6667" d="M18.667 16c0 1.473-1.194 2.667-2.667 2.667s-2.667-1.194-2.667-2.667c0-1.473 1.194-2.667 2.667-2.667s2.667 1.194 2.667 2.667z"></path>
</symbol>
<symbol id="icon-Info" viewBox="0 0 32 32">
<path fill="#fff" style="fill: var(--color1, #fff)" opacity="0.01" d="M0 0h32v32h-32v-32z"></path>
<path fill="none" stroke-linejoin="round" stroke-linecap="round" stroke-miterlimit="4" stroke-width="2.6667" d="M16 29.333c7.364 0 13.333-5.97 13.333-13.333s-5.97-13.333-13.333-13.333c-7.364 0-13.333 5.97-13.333 13.333s5.97 13.333 13.333 13.333z"></path>
<path fill="none" stroke-linejoin="round" stroke-linecap="round" stroke-miterlimit="4" stroke-width="2.6667" d="M16 21.333v-5.333"></path>
<path fill="none" stroke-linejoin="round" stroke-linecap="round" stroke-miterlimit="4" stroke-width="2.6667" d="M16 10.667h0.013"></path>
</symbol>
<symbol id="icon-Link" viewBox="0 0 32 32">
<path fill="#fff" style="fill: var(--color1, #fff)" opacity="0.01" d="M0 0h32v32h-32v-32z"></path>
<path fill="none" stroke-linejoin="round" stroke-linecap="round" stroke-miterlimit="4" stroke-width="2.6667" d="M13.333 17.333c0.573 0.765 1.303 1.399 2.142 1.857s1.767 0.731 2.72 0.799c0.953 0.068 1.911-0.069 2.806-0.403s1.709-0.857 2.385-1.533l4-4c1.214-1.257 1.886-2.941 1.871-4.689s-0.716-3.42-1.952-4.656c-1.236-1.236-2.908-1.937-4.656-1.952s-3.432 0.657-4.689 1.871l-2.293 2.28"></path>
<path fill="none" stroke-linejoin="round" stroke-linecap="round" stroke-miterlimit="4" stroke-width="2.6667" d="M18.667 14.667c-0.573-0.765-1.303-1.399-2.142-1.857s-1.767-0.731-2.72-0.799c-0.954-0.068-1.911 0.069-2.806 0.403s-1.709 0.857-2.385 1.533l-4 4c-1.214 1.257-1.886 2.941-1.871 4.689s0.716 3.42 1.952 4.656c1.236 1.236 2.908 1.937 4.656 1.952s3.432-0.657 4.689-1.871l2.28-2.28"></path>
</symbol>
<symbol id="icon-Medicine" viewBox="0 0 32 32">
<path fill="#fff" style="fill: var(--color1, #fff)" opacity="0.01" d="M0 0h32v32h-32v-32z"></path>
<path fill="none" stroke-linejoin="miter" stroke-linecap="butt" stroke-miterlimit="4" stroke-width="2.6667" d="M26.371 5.629c3.124 3.124 3.124 8.189 0 11.314l-9.428 9.428c-3.124 3.124-8.19 3.124-11.314 0s-3.124-8.19 0-11.314l9.428-9.428c3.124-3.124 8.19-3.124 11.314 0z"></path>
<path fill="none" stroke-linejoin="miter" stroke-linecap="butt" stroke-miterlimit="4" stroke-width="2.6667" d="M11.609 9.724l10.667 10.667"></path>
</symbol>
<symbol id="icon-Menu" viewBox="0 0 32 32">
<path fill="#fff" style="fill: var(--color1, #fff)" opacity="0.01" d="M0 0h32v32h-32v-32z"></path>
<path fill="none" stroke-linejoin="round" stroke-linecap="round" stroke-miterlimit="4" stroke-width="2.6667" d="M4 16h24"></path>
<path fill="none" stroke-linejoin="round" stroke-linecap="round" stroke-miterlimit="4" stroke-width="2.6667" d="M4 8h24"></path>
<path fill="none" stroke-linejoin="round" stroke-linecap="round" stroke-miterlimit="4" stroke-width="2.6667" d="M4 24h24"></path>
</symbol>
<symbol id="icon-Message-circle" viewBox="0 0 32 32">
<path fill="#fff" style="fill: var(--color1, #fff)" opacity="0.01" d="M0 0h32v32h-32v-32z"></path>
<path fill="none" stroke-linejoin="round" stroke-linecap="round" stroke-miterlimit="4" stroke-width="2.6667" d="M28 15.333c0.005 1.76-0.407 3.496-1.2 5.067-0.941 1.882-2.387 3.466-4.177 4.572s-3.852 1.693-5.957 1.694c-1.76 0.005-3.496-0.407-5.067-1.2l-7.6 2.533 2.533-7.6c-0.793-1.571-1.205-3.307-1.2-5.067 0.001-2.104 0.587-4.167 1.694-5.957s2.69-3.236 4.572-4.177c1.571-0.793 3.307-1.205 5.067-1.2h0.667c2.779 0.153 5.404 1.326 7.372 3.294s3.141 4.593 3.295 7.372v0.667z"></path>
</symbol>
<symbol id="icon-Mouse" viewBox="0 0 32 32">
<path fill="#fff" style="fill: var(--color1, #fff)" opacity="0.01" d="M0 0h32v32h-32v-32z"></path>
<path fill="none" stroke-linejoin="round" stroke-linecap="round" stroke-miterlimit="4" stroke-width="2.6667" d="M6.667 10.667v10.667c0 5.155 4.179 9.333 9.333 9.333s9.333-4.179 9.333-9.333v-10.667c0-5.155-4.179-9.333-9.333-9.333s-9.333 4.179-9.333 9.333z"></path>
<path fill="none" stroke-linejoin="round" stroke-linecap="round" stroke-miterlimit="4" stroke-width="2.6667" d="M16 10.667v2.667"></path>
</symbol>
<symbol id="icon-Package" viewBox="0 0 32 32">
<path fill="#fff" style="fill: var(--color1, #fff)" opacity="0.01" d="M0 0h32v32h-32v-32z"></path>
<path fill="none" stroke-linejoin="round" stroke-linecap="round" stroke-miterlimit="4" stroke-width="2.6667" d="M22 12.533l-12-6.92"></path>
<path fill="none" stroke-linejoin="round" stroke-linecap="round" stroke-miterlimit="4" stroke-width="2.6667" d="M28 21.333v-10.667c-0.001-0.468-0.124-0.927-0.358-1.332s-0.57-0.741-0.975-0.975l-9.333-5.333c-0.405-0.234-0.865-0.357-1.333-0.357s-0.928 0.123-1.333 0.357l-9.333 5.333c-0.405 0.234-0.741 0.57-0.975 0.975s-0.357 0.864-0.358 1.332v10.667c0 0.468 0.124 0.927 0.358 1.332s0.57 0.741 0.975 0.975l9.333 5.333c0.405 0.234 0.865 0.357 1.333 0.357s0.928-0.123 1.333-0.357l9.333-5.333c0.405-0.234 0.741-0.57 0.975-0.975s0.357-0.864 0.358-1.332z"></path>
<path fill="none" stroke-linejoin="round" stroke-linecap="round" stroke-miterlimit="4" stroke-width="2.6667" d="M4.36 9.28l11.64 6.733 11.64-6.733"></path>
<path fill="none" stroke-linejoin="round" stroke-linecap="round" stroke-miterlimit="4" stroke-width="2.6667" d="M16 29.44v-13.44"></path>
</symbol>
<symbol id="icon-pPlay-circle" viewBox="0 0 32 32">
<path fill="none" stroke-linejoin="round" stroke-linecap="round" stroke-miterlimit="4" stroke-width="2.6667" d="M16 29.333c7.364 0 13.333-5.97 13.333-13.333s-5.97-13.333-13.333-13.333c-7.364 0-13.333 5.97-13.333 13.333s5.97 13.333 13.333 13.333z"></path>
<path fill="none" stroke-linejoin="round" stroke-linecap="round" stroke-miterlimit="4" stroke-width="2.6667" d="M13.333 10.667l8 5.333-8 5.333v-10.667z"></path>
</symbol>
<symbol id="icon-Scissors" viewBox="0 0 32 32">
<path fill="#fff" style="fill: var(--color1, #fff)" opacity="0.01" d="M0 0h32v32h-32v-32z"></path>
<path fill="none" stroke-linejoin="round" stroke-linecap="round" stroke-miterlimit="4" stroke-width="2.6667" d="M8 12c2.209 0 4-1.791 4-4s-1.791-4-4-4c-2.209 0-4 1.791-4 4s1.791 4 4 4z"></path>
<path fill="none" stroke-linejoin="round" stroke-linecap="round" stroke-miterlimit="4" stroke-width="2.6667" d="M8 28c2.209 0 4-1.791 4-4s-1.791-4-4-4c-2.209 0-4 1.791-4 4s1.791 4 4 4z"></path>
<path fill="none" stroke-linejoin="round" stroke-linecap="round" stroke-miterlimit="4" stroke-width="2.6667" d="M26.667 5.333l-15.84 15.84"></path>
<path fill="none" stroke-linejoin="round" stroke-linecap="round" stroke-miterlimit="4" stroke-width="2.6667" d="M19.293 19.307l7.373 7.36"></path>
<path fill="none" stroke-linejoin="round" stroke-linecap="round" stroke-miterlimit="4" stroke-width="2.6667" d="M10.827 10.827l5.173 5.173"></path>
</symbol>
<symbol id="icon-Search" viewBox="0 0 32 32">
<path fill="#fff" style="fill: var(--color1, #fff)" opacity="0.01" d="M0 0h32v32h-32v-32z"></path>
<path fill="none" stroke-linejoin="round" stroke-linecap="round" stroke-miterlimit="4" stroke-width="2.6667" d="M14.667 25.333c5.891 0 10.667-4.776 10.667-10.667s-4.776-10.667-10.667-10.667c-5.891 0-10.667 4.776-10.667 10.667s4.776 10.667 10.667 10.667z"></path>
<path fill="none" stroke-linejoin="round" stroke-linecap="round" stroke-miterlimit="4" stroke-width="2.6667" d="M28 28l-5.8-5.8"></path>
</symbol>
<symbol id="icon-Shield" viewBox="0 0 32 32">
<path fill="#fff" style="fill: var(--color1, #fff)" opacity="0.01" d="M0 0h32v32h-32v-32z"></path>
<path fill="none" stroke-linejoin="round" stroke-linecap="round" stroke-miterlimit="4" stroke-width="2.6667" d="M16 29.333c0 0 10.667-5.333 10.667-13.333v-9.333l-10.667-4-10.667 4v9.333c0 8 10.667 13.333 10.667 13.333z"></path>
</symbol>
<symbol id="icon-Smile" viewBox="0 0 32 32">
<path fill="none" stroke-linejoin="round" stroke-linecap="round" stroke-miterlimit="4" stroke-width="2.6667" d="M16 29.333c7.364 0 13.333-5.97 13.333-13.333s-5.97-13.333-13.333-13.333c-7.364 0-13.333 5.97-13.333 13.333s5.97 13.333 13.333 13.333z"></path>
<path fill="none" stroke-linejoin="round" stroke-linecap="round" stroke-miterlimit="4" stroke-width="2.6667" d="M10.667 18.667c0 0 2 2.667 5.333 2.667s5.333-2.667 5.333-2.667"></path>
<path fill="none" stroke-linejoin="round" stroke-linecap="round" stroke-miterlimit="4" stroke-width="2.6667" d="M12 12h0.013"></path>
<path fill="none" stroke-linejoin="round" stroke-linecap="round" stroke-miterlimit="4" stroke-width="2.6667" d="M20 12h0.013"></path>
</symbol>
<symbol id="icon-Stethoscope" viewBox="0 0 32 32">
<path fill="#fff" style="fill: var(--color1, #fff)" opacity="0.01" d="M0 0h32v32h-32v-32z"></path>
<path fill="none" stroke-linejoin="round" stroke-linecap="round" stroke-miterlimit="4" stroke-width="2.6667" d="M12.667 2.667h0.133c1.767 0 3.2 1.433 3.2 3.2v6.133c0 3.682-2.985 6.667-6.667 6.667v0c-3.682 0-6.667-2.985-6.667-6.667v-6.133c0-1.767 1.433-3.2 3.2-3.2h0.133"></path>
<path fill="none" stroke-linejoin="round" stroke-linecap="round" stroke-miterlimit="4" stroke-width="2.6667" d="M9.333 18.667v5.585c0 2.806 2.275 5.081 5.081 5.081v0c2.29 0 4.298-1.532 4.901-3.741l1.945-7.114c0.83-3.038 3.59-5.145 6.739-5.145v0"></path>
<path fill="none" stroke-linejoin="round" stroke-linecap="round" stroke-miterlimit="4" stroke-width="2.6667" d="M29.333 14.667c0.736 0 1.333-0.597 1.333-1.333s-0.597-1.333-1.333-1.333c-0.736 0-1.333 0.597-1.333 1.333s0.597 1.333 1.333 1.333z"></path>
</symbol>
<symbol id="icon-Thumbs-up" viewBox="0 0 32 32">
<path fill="none" stroke-linejoin="round" stroke-linecap="round" stroke-miterlimit="4" stroke-width="2.6667" d="M9.333 29.333h-4c-0.707 0-1.386-0.281-1.886-0.781s-0.781-1.178-0.781-1.886v-9.333c0-0.707 0.281-1.385 0.781-1.886s1.178-0.781 1.886-0.781h4M18.667 12v-5.333c0-1.061-0.421-2.078-1.172-2.828s-1.768-1.172-2.828-1.172l-5.333 12v14.667h15.040c0.643 0.007 1.267-0.218 1.757-0.635s0.813-0.996 0.909-1.632l1.84-12c0.058-0.382 0.032-0.772-0.076-1.144s-0.295-0.715-0.549-1.006c-0.254-0.292-0.568-0.525-0.92-0.683s-0.736-0.238-1.122-0.234h-7.547z"></path>
</symbol>
<symbol id="icon-user" viewBox="0 0 32 32">
<path fill="none" stroke-linejoin="round" stroke-linecap="round" stroke-miterlimit="4" stroke-width="2.6667" d="M26.667 28v-2.667c0-1.415-0.562-2.771-1.562-3.771s-2.357-1.562-3.771-1.562h-10.667c-1.415 0-2.771 0.562-3.771 1.562s-1.562 2.357-1.562 3.771v2.667"></path>
<path fill="none" stroke-linejoin="round" stroke-linecap="round" stroke-miterlimit="4" stroke-width="2.6667" d="M16 14.667c2.945 0 5.333-2.388 5.333-5.333s-2.388-5.333-5.333-5.333c-2.946 0-5.333 2.388-5.333 5.333s2.388 5.333 5.333 5.333z"></path>
</symbol>
<symbol id="icon-users" viewBox="0 0 32 32">
<path fill="none" stroke-linejoin="round" stroke-linecap="round" stroke-miterlimit="4" stroke-width="2.6667" d="M22.667 28v-2.667c0-1.415-0.562-2.771-1.562-3.771s-2.357-1.562-3.771-1.562h-10.667c-1.415 0-2.771 0.562-3.771 1.562s-1.562 2.357-1.562 3.771v2.667"></path>
<path fill="none" stroke-linejoin="round" stroke-linecap="round" stroke-miterlimit="4" stroke-width="2.6667" d="M12 14.667c2.945 0 5.333-2.388 5.333-5.333s-2.388-5.333-5.333-5.333c-2.946 0-5.333 2.388-5.333 5.333s2.388 5.333 5.333 5.333z"></path>
<path fill="none" stroke-linejoin="round" stroke-linecap="round" stroke-miterlimit="4" stroke-width="2.6667" d="M30.667 28v-2.667c-0.001-1.182-0.394-2.33-1.118-3.264s-1.738-1.601-2.882-1.896"></path>
<path fill="none" stroke-linejoin="round" stroke-linecap="round" stroke-miterlimit="4" stroke-width="2.6667" d="M21.333 4.173c1.147 0.294 2.164 0.961 2.89 1.896s1.12 2.086 1.12 3.27c0 1.184-0.394 2.335-1.12 3.27s-1.743 1.603-2.89 1.896"></path>
</symbol>
<symbol id="icon-Watch" viewBox="0 0 32 32">
<path fill="none" stroke-linejoin="round" stroke-linecap="round" stroke-miterlimit="4" stroke-width="2.6667" d="M16 25.333c5.155 0 9.333-4.179 9.333-9.333s-4.179-9.333-9.333-9.333c-5.155 0-9.333 4.179-9.333 9.333s4.179 9.333 9.333 9.333z"></path>
<path fill="none" stroke-linejoin="round" stroke-linecap="round" stroke-miterlimit="4" stroke-width="2.6667" d="M16 12v4l2 2"></path>
<path fill="none" stroke-linejoin="round" stroke-linecap="round" stroke-miterlimit="4" stroke-width="2.6667" d="M22.013 23.133l-0.467 5.107c-0.060 0.665-0.367 1.283-0.861 1.732s-1.138 0.697-1.806 0.694h-5.773c-0.668 0.003-1.312-0.245-1.806-0.694s-0.801-1.067-0.861-1.732l-0.467-5.107M9.987 8.867l0.467-5.107c0.060-0.663 0.365-1.279 0.856-1.728s1.132-0.698 1.797-0.699h5.8c0.668-0.003 1.312 0.245 1.806 0.694s0.801 1.067 0.861 1.732l0.467 5.107"></path>
</symbol>
<symbol id="icon-close" viewBox="0 0 24 24">
<path d="M20 20.0001L3.99986 3.99999" stroke="#E0E5EA" stroke-width="2" stroke-linecap="round" stroke-linejoin="round"/>
<path d="M4 20.0001L20.0001 3.99998" stroke="#E0E5EA" stroke-width="2" stroke-linecap="round" stroke-linejoin="round"/>
</symbol>
</defs>
</svg>
