<svg width="15" height="15" viewBox="0 0 15 15" fill="none" xmlns="http://www.w3.org/2000/svg">
<path d="M6.49413 9.9036C6.17042 10.2286 6.17093 10.7543 6.49527 11.0786V11.0786C6.82005 11.4034 7.34662 11.4034 7.6714 11.0786L10.5743 8.17568C10.9475 7.80251 10.9475 7.19749 10.5743 6.82432L7.6714 3.9214C7.34662 3.59662 6.82005 3.59662 6.49526 3.9214V3.9214C6.17093 4.24574 6.17042 4.77144 6.49413 5.0964L8.05833 6.66667H0.833334C0.373097 6.66667 0 7.03976 0 7.5V7.5C0 7.96024 0.373096 8.33333 0.833333 8.33333H8.05833L6.49413 9.9036ZM13.3333 0H1.66667C0.741667 0 0 0.75 0 1.66667V4.16667C0 4.6269 0.373096 5 0.833333 5V5C1.29357 5 1.66667 4.6269 1.66667 4.16667V1.66667H13.3333V13.3333H1.66667V10.8333C1.66667 10.3731 1.29357 10 0.833333 10V10C0.373096 10 0 10.3731 0 10.8333V13.3333C0 14.25 0.741667 15 1.66667 15H13.3333C14.25 15 15 14.25 15 13.3333V1.66667C15 0.75 14.25 0 13.3333 0Z" fill="#576473"/>
</svg>
