<svg width="24" height="24" viewBox="0 0 24 24" fill="none" xmlns="http://www.w3.org/2000/svg">
<rect width="24" height="24" fill="white" fill-opacity="0.01"/>
<path d="M9.5 2H9.6C10.9255 2 12 3.07452 12 4.4V9C12 11.7614 9.76142 14 7 14V14C4.23858 14 2 11.7614 2 9V4.4C2 3.07452 3.07452 2 4.4 2H4.5" stroke="#576473" stroke-width="2" stroke-linecap="round" stroke-linejoin="round"/>
<path d="M7 14V18.1891C7 20.2938 8.70621 22 10.8109 22V22C12.5287 22 14.0341 20.8508 14.487 19.1939L15.9454 13.8585C16.5681 11.5801 18.6381 10 21 10V10" stroke="#576473" stroke-width="2" stroke-linecap="round" stroke-linejoin="round"/>
<path d="M22 11C22.5523 11 23 10.5523 23 10C23 9.44772 22.5523 9 22 9C21.4477 9 21 9.44772 21 10C21 10.5523 21.4477 11 22 11Z" stroke="#576473" stroke-width="2" stroke-linecap="round" stroke-linejoin="round"/>
</svg>
