<svg width="16" height="13" viewBox="0 0 16 13" fill="none" xmlns="http://www.w3.org/2000/svg">
<path d="M3.63661 4.93376C3.45874 4.93376 3.28804 4.96186 3.11815 4.98747C3.17318 4.79574 3.22982 4.60071 3.32075 4.42551C3.41168 4.17097 3.55366 3.95031 3.69484 3.728C3.81289 3.48751 4.02107 3.32471 4.17422 3.11893C4.33455 2.91893 4.5531 2.78588 4.72619 2.61977C4.89608 2.44622 5.11862 2.35944 5.2957 2.23713C5.48075 2.12722 5.64187 2.00573 5.81416 1.94788C5.98007 1.87681 6.12524 1.81566 6.24409 1.76442C6.48498 1.66111 6.62217 1.60161 6.62217 1.60161L6.23532 0C6.23532 0 6.06143 0.0429737 5.75913 0.119005C5.60678 0.158673 5.42093 0.204953 5.20956 0.260324C4.9934 0.301645 4.76288 0.414865 4.50604 0.518168C4.25239 0.635521 3.95886 0.714858 3.68607 0.903283C3.41168 1.08344 3.09502 1.23385 2.81584 1.47517C2.54544 1.72392 2.21921 1.93962 1.97832 2.25614C1.7151 2.552 1.45507 2.86274 1.25327 3.21645C1.01956 3.55363 0.860833 3.92387 0.693329 4.28997C0.541777 4.65608 0.419739 5.03045 0.320034 5.39408C0.130994 6.12298 0.0464443 6.81553 0.0137411 7.40807C-0.0133786 8.00145 0.00257418 8.49482 0.036075 8.85184C0.0480395 9.02043 0.0703735 9.18406 0.0863262 9.29728C0.0998861 9.38736 0.106267 9.43612 0.106267 9.43612L0.127006 9.43116C0.473978 11.1105 1.91212 12.3716 3.63661 12.3716C5.61874 12.3716 7.22598 10.7063 7.22598 8.65267C7.22598 6.599 5.61874 4.93376 3.63661 4.93376ZM12.4106 4.93376C12.2328 4.93376 12.0621 4.96186 11.8922 4.98747C11.9472 4.79574 12.0038 4.60071 12.0948 4.42551C12.1857 4.17097 12.3277 3.95031 12.4689 3.728C12.5869 3.48751 12.7951 3.32471 12.9482 3.11893C13.1086 2.91893 13.3271 2.78588 13.5002 2.61977C13.6701 2.44622 13.8926 2.35944 14.0697 2.23713C14.2548 2.12722 14.4159 2.00573 14.5882 1.94788C14.7541 1.87681 14.8993 1.81566 15.0181 1.76442C15.259 1.66111 15.3962 1.60161 15.3962 1.60161L15.0093 0C15.0093 0 14.8354 0.0429737 14.5331 0.119005C14.3808 0.158673 14.1949 0.204953 13.9836 0.260324C13.7674 0.301645 13.5369 0.414865 13.2801 0.518168C13.0272 0.636347 12.7329 0.714858 12.4601 0.904109C12.1857 1.08427 11.869 1.23468 11.5899 1.476C11.3195 1.72475 10.9932 1.94045 10.7523 2.25614C10.4891 2.552 10.2291 2.86274 10.0273 3.21645C9.79358 3.55363 9.63485 3.92387 9.46735 4.28997C9.31579 4.65608 9.19376 5.03045 9.09405 5.39408C8.90501 6.12298 8.82046 6.81553 8.78776 7.40807C8.76064 8.00145 8.77659 8.49482 8.81009 8.85184C8.82206 9.02043 8.84439 9.18406 8.86034 9.29728C8.8739 9.38736 8.88028 9.43612 8.88028 9.43612L8.90102 9.43116C9.248 11.1105 10.6861 12.3716 12.4106 12.3716C14.3928 12.3716 16 10.7063 16 8.65267C16 6.599 14.3928 4.93376 12.4106 4.93376Z" fill="#98A5B3"/>
</svg>
